<?xml version="1.0" encoding="UTF-8"?><svg xmlns="http://www.w3.org/2000/svg" xmlns:xlink="http://www.w3.org/1999/xlink" width="375pt" zoomAndPan="magnify" viewBox="0 0 375 374.999991" height="374.999991pt" preserveAspectRatio="xMidYMid meet" version="1.2"><defs><g/><clipPath xml:id="clip1" id="clip1"><path d="M 21.433594 177.617188 L 230.972656 177.617188 L 230.972656 219.457031 L 21.433594 219.457031 Z M 21.433594 177.617188 "/></clipPath><clipPath xml:id="clip2" id="clip2"><path d="M 142.449219 146.773438 L 374.863281 146.773438 L 374.863281 208.796875 L 142.449219 208.796875 Z M 142.449219 146.773438 "/></clipPath><clipPath xml:id="clip3" id="clip3"><path d="M 0.140625 156.082031 L 374.863281 156.082031 L 374.863281 219.449219 L 0.140625 219.449219 Z M 0.140625 156.082031 "/></clipPath><clipPath xml:id="clip4" id="clip4"><path d="M 0.140625 149.351562 L 374.863281 149.351562 L 374.863281 216 L 0.140625 216 Z M 0.140625 149.351562 "/></clipPath></defs><g xml:id="surface1" id="surface1"><rect x="0" width="375" y="0" height="374.999991" style="fill:rgb(100%,100%,100%);fill-opacity:1;stroke:none;"/><rect x="0" width="375" y="0" height="374.999991" style="fill:rgb(100%,100%,100%);fill-opacity:1;stroke:none;"/><rect x="0" width="375" y="0" height="374.999991" style="fill:rgb(100%,100%,100%);fill-opacity:1;stroke:none;"/><g style="fill:rgb(100%,34.118652%,34.118652%);fill-opacity:1;"><g transform="translate(1.19347, 265.069319)"><path style="stroke:none;" d="M 11.253906 0 L 11.253906 -1.527344 L 3.40625 -1.527344 L 3.40625 -7.214844 L 11.019531 -7.214844 L 11.019531 -8.765625 L 3.40625 -8.765625 L 3.40625 -14.449219 L 11.253906 -14.449219 L 11.253906 -15.976562 L 1.761719 -15.976562 L 1.761719 0 Z M 11.253906 0 "/></g></g><g style="fill:rgb(100%,34.118652%,34.118652%);fill-opacity:1;"><g transform="translate(22.435325, 265.069319)"><path style="stroke:none;" d="M 3.40625 -1.644531 L 3.40625 -15.976562 L 1.761719 -15.976562 L 1.761719 0 L 9.117188 0 L 9.117188 -1.644531 Z M 3.40625 -1.644531 "/></g></g><g style="fill:rgb(100%,34.118652%,34.118652%);fill-opacity:1;"><g transform="translate(40.246746, 265.069319)"><path style="stroke:none;" d=""/></g></g><g style="fill:rgb(100%,34.118652%,34.118652%);fill-opacity:1;"><g transform="translate(54.815697, 265.069319)"><path style="stroke:none;" d="M 16.496094 0 L 18.164062 0 L 14.449219 -17.035156 L 9.210938 -3.359375 L 3.972656 -17.035156 L 0.234375 0 L 1.925781 0 L 4.394531 -11.371094 L 9.210938 0.941406 L 14.003906 -11.371094 Z M 16.496094 0 "/></g></g><g style="fill:rgb(100%,34.118652%,34.118652%);fill-opacity:1;"><g transform="translate(81.438178, 265.069319)"><path style="stroke:none;" d="M 4.347656 -5.875 L 7.261719 -13.230469 L 10.152344 -5.875 Z M 14.261719 0 L 7.261719 -17.082031 L 0.234375 0 L 2.019531 0 L 3.734375 -4.347656 L 10.761719 -4.347656 L 12.476562 0 Z M 14.261719 0 "/></g></g><g style="fill:rgb(100%,34.118652%,34.118652%);fill-opacity:1;"><g transform="translate(104.160295, 265.069319)"><path style="stroke:none;" d="M 3.40625 -7.894531 L 3.40625 -14.402344 L 7.121094 -14.402344 C 8.082031 -14.402344 8.859375 -14.097656 9.445312 -13.488281 C 10.011719 -12.875 10.316406 -12.125 10.316406 -11.183594 C 10.316406 -10.246094 10.011719 -9.46875 9.398438 -8.835938 C 8.789062 -8.199219 8.035156 -7.894531 7.121094 -7.894531 Z M 11.960938 -11.160156 C 11.960938 -12.523438 11.441406 -13.699219 10.457031 -14.617188 C 9.492188 -15.507812 8.292969 -15.976562 6.886719 -15.976562 L 1.761719 -15.976562 L 1.761719 0 L 3.40625 0 L 3.40625 -6.320312 L 5.308594 -6.320312 L 10.011719 0 L 12.21875 0 L 7.285156 -6.320312 C 8.53125 -6.390625 9.585938 -6.835938 10.457031 -7.660156 C 11.441406 -8.578125 11.960938 -9.75 11.960938 -11.160156 Z M 11.960938 -11.160156 "/></g></g><g style="fill:rgb(100%,34.118652%,34.118652%);fill-opacity:1;"><g transform="translate(125.167194, 265.069319)"><path style="stroke:none;" d="M 3.40625 0 L 3.40625 -15.976562 L 1.761719 -15.976562 L 1.761719 0 Z M 3.40625 0 "/></g></g><g style="fill:rgb(100%,34.118652%,34.118652%);fill-opacity:1;"><g transform="translate(138.561346, 265.069319)"><path style="stroke:none;" d="M 4.347656 -5.875 L 7.261719 -13.230469 L 10.152344 -5.875 Z M 14.261719 0 L 7.261719 -17.082031 L 0.234375 0 L 2.019531 0 L 3.734375 -4.347656 L 10.761719 -4.347656 L 12.476562 0 Z M 14.261719 0 "/></g></g><g style="fill:rgb(100%,34.118652%,34.118652%);fill-opacity:1;"><g transform="translate(161.283463, 265.069319)"><path style="stroke:none;" d="M 16.425781 -4.886719 L 14.617188 -4.886719 C 14.050781 -3.855469 13.277344 -3.007812 12.289062 -2.398438 C 11.300781 -1.761719 10.199219 -1.457031 9.023438 -1.457031 C 7.261719 -1.457031 5.757812 -2.089844 4.511719 -3.40625 C 3.289062 -4.652344 2.703125 -6.179688 2.703125 -7.964844 C 2.703125 -9.75 3.289062 -11.277344 4.511719 -12.546875 C 5.074219 -13.136719 5.757812 -13.605469 6.53125 -13.957031 C 7.285156 -14.308594 8.035156 -14.496094 8.789062 -14.496094 C 9.515625 -14.496094 10.152344 -14.402344 10.714844 -14.238281 C 12.429688 -13.722656 13.722656 -12.6875 14.59375 -11.113281 L 16.402344 -11.113281 C 15.789062 -12.617188 14.828125 -13.839844 13.488281 -14.78125 C 12.125 -15.71875 10.644531 -16.191406 9.023438 -16.191406 C 6.789062 -16.191406 4.910156 -15.367188 3.359375 -13.746094 C 2.632812 -12.992188 2.066406 -12.101562 1.667969 -11.113281 C 1.246094 -10.128906 1.058594 -9.070312 1.058594 -7.964844 C 1.058594 -5.710938 1.808594 -3.804688 3.359375 -2.207031 C 4.910156 -0.5625 6.789062 0.234375 9.023438 0.234375 C 10.644531 0.234375 12.125 -0.234375 13.511719 -1.175781 C 14.851562 -2.113281 15.8125 -3.335938 16.425781 -4.886719 Z M 16.425781 -4.886719 "/></g></g><g style="fill:rgb(100%,34.118652%,34.118652%);fill-opacity:1;"><g transform="translate(186.637149, 265.069319)"><path style="stroke:none;" d="M 3.40625 0 L 3.40625 -7.144531 L 10.667969 -7.144531 L 10.667969 0 L 12.3125 0 L 12.3125 -15.976562 L 10.667969 -15.976562 L 10.667969 -8.789062 L 3.40625 -8.789062 L 3.40625 -15.976562 L 1.761719 -15.976562 L 1.761719 0 Z M 3.40625 0 "/></g></g><g style="fill:rgb(100%,34.118652%,34.118652%);fill-opacity:1;"><g transform="translate(208.936338, 265.069319)"><path style="stroke:none;" d="M 3.40625 0 L 3.40625 -15.976562 L 1.761719 -15.976562 L 1.761719 0 Z M 3.40625 0 "/></g></g><g style="fill:rgb(100%,34.118652%,34.118652%);fill-opacity:1;"><g transform="translate(222.330479, 265.069319)"><path style="stroke:none;" d=""/></g></g><g style="fill:rgb(100%,34.118652%,34.118652%);fill-opacity:1;"><g transform="translate(236.899424, 265.069319)"><path style="stroke:none;" d="M 7.496094 0.964844 L 14.734375 -15.976562 L 12.945312 -15.976562 L 7.496094 -3.101562 L 2.019531 -15.976562 L 0.234375 -15.976562 Z M 7.496094 0.964844 "/></g></g><g style="fill:rgb(100%,34.118652%,34.118652%);fill-opacity:1;"><g transform="translate(260.09147, 265.069319)"><path style="stroke:none;" d="M 3.40625 0 L 3.40625 -15.976562 L 1.761719 -15.976562 L 1.761719 0 Z M 3.40625 0 "/></g></g><g style="fill:rgb(100%,34.118652%,34.118652%);fill-opacity:1;"><g transform="translate(273.485611, 265.069319)"><path style="stroke:none;" d="M 4.347656 -5.875 L 7.261719 -13.230469 L 10.152344 -5.875 Z M 14.261719 0 L 7.261719 -17.082031 L 0.234375 0 L 2.019531 0 L 3.734375 -4.347656 L 10.761719 -4.347656 L 12.476562 0 Z M 14.261719 0 "/></g></g><g style="fill:rgb(100%,34.118652%,34.118652%);fill-opacity:1;"><g transform="translate(296.207717, 265.069319)"><path style="stroke:none;" d="M 7.167969 -3.949219 L 7.167969 -15.976562 L 5.523438 -15.976562 L 5.523438 -3.949219 C 5.523438 -2.9375 5.121094 -2.230469 4.371094 -1.808594 C 3.734375 -1.433594 2.960938 -1.316406 2.042969 -1.433594 C 1.199219 -1.527344 0.539062 -1.761719 0.117188 -2.136719 L 0.117188 -0.328125 C 0.257812 -0.1875 0.539062 -0.0703125 0.964844 0.046875 C 1.386719 0.164062 1.855469 0.234375 2.375 0.234375 C 3.640625 0.28125 4.699219 0.0234375 5.546875 -0.5625 C 6.625 -1.269531 7.167969 -2.398438 7.167969 -3.949219 Z M 7.167969 -3.949219 "/></g></g><g style="fill:rgb(100%,34.118652%,34.118652%);fill-opacity:1;"><g transform="translate(313.00881, 265.069319)"><path style="stroke:none;" d="M 11.253906 0 L 11.253906 -1.527344 L 3.40625 -1.527344 L 3.40625 -7.214844 L 11.019531 -7.214844 L 11.019531 -8.765625 L 3.40625 -8.765625 L 3.40625 -14.449219 L 11.253906 -14.449219 L 11.253906 -15.976562 L 1.761719 -15.976562 L 1.761719 0 Z M 11.253906 0 "/></g></g><g style="fill:rgb(100%,34.118652%,34.118652%);fill-opacity:1;"><g transform="translate(334.250668, 265.069319)"><path style="stroke:none;" d="M 3.40625 -7.894531 L 3.40625 -14.402344 L 7.121094 -14.402344 C 8.082031 -14.402344 8.859375 -14.097656 9.445312 -13.488281 C 10.011719 -12.875 10.316406 -12.125 10.316406 -11.183594 C 10.316406 -10.246094 10.011719 -9.46875 9.398438 -8.835938 C 8.789062 -8.199219 8.035156 -7.894531 7.121094 -7.894531 Z M 11.960938 -11.160156 C 11.960938 -12.523438 11.441406 -13.699219 10.457031 -14.617188 C 9.492188 -15.507812 8.292969 -15.976562 6.886719 -15.976562 L 1.761719 -15.976562 L 1.761719 0 L 3.40625 0 L 3.40625 -6.320312 L 5.308594 -6.320312 L 10.011719 0 L 12.21875 0 L 7.285156 -6.320312 C 8.53125 -6.390625 9.585938 -6.835938 10.457031 -7.660156 C 11.441406 -8.578125 11.960938 -9.75 11.960938 -11.160156 Z M 11.960938 -11.160156 "/></g></g><g style="fill:rgb(100%,34.118652%,34.118652%);fill-opacity:1;"><g transform="translate(355.257556, 265.069319)"><path style="stroke:none;" d="M 15.835938 -8.035156 C 15.835938 -6.203125 15.179688 -4.652344 13.910156 -3.382812 C 12.617188 -2.089844 11.066406 -1.457031 9.257812 -1.457031 C 7.449219 -1.457031 5.898438 -2.089844 4.628906 -3.382812 C 3.335938 -4.652344 2.703125 -6.203125 2.703125 -8.035156 C 2.703125 -9.820312 3.335938 -11.371094 4.628906 -12.664062 C 5.898438 -13.933594 7.449219 -14.59375 9.257812 -14.59375 C 11.066406 -14.59375 12.617188 -13.933594 13.910156 -12.664062 C 15.179688 -11.371094 15.835938 -9.820312 15.835938 -8.035156 Z M 17.480469 -8.035156 C 17.480469 -9.164062 17.246094 -10.222656 16.824219 -11.230469 C 16.402344 -12.21875 15.8125 -13.089844 15.0625 -13.839844 C 14.308594 -14.570312 13.441406 -15.15625 12.453125 -15.578125 C 11.441406 -16 10.386719 -16.238281 9.257812 -16.238281 C 8.128906 -16.238281 7.050781 -16 6.0625 -15.578125 C 5.074219 -15.15625 4.207031 -14.570312 3.453125 -13.839844 C 2.703125 -13.089844 2.113281 -12.21875 1.691406 -11.230469 C 1.269531 -10.222656 1.058594 -9.164062 1.058594 -8.035156 C 1.058594 -6.910156 1.269531 -5.828125 1.691406 -4.839844 C 2.113281 -3.832031 2.703125 -2.960938 3.453125 -2.207031 C 4.207031 -1.457031 5.074219 -0.871094 6.0625 -0.445312 C 7.050781 -0.0234375 8.128906 0.1875 9.257812 0.1875 C 10.386719 0.1875 11.441406 -0.0234375 12.453125 -0.445312 C 13.441406 -0.871094 14.308594 -1.457031 15.0625 -2.207031 C 15.8125 -2.960938 16.402344 -3.832031 16.824219 -4.839844 C 17.246094 -5.828125 17.480469 -6.910156 17.480469 -8.035156 Z M 17.480469 -8.035156 "/></g></g><g clip-rule="nonzero" clip-path="url(#clip1)"><path style=" stroke:none;fill-rule:nonzero;fill:rgb(100%,34.118652%,34.118652%);fill-opacity:1;" d="M 21.5 196.558594 C 21.5 196.558594 73.921875 218.910156 120.519531 219.394531 C 167.117188 219.882812 230.894531 217.386719 230.894531 217.386719 C 230.894531 217.386719 64.214844 144.089844 21.5 196.558594 "/></g><g clip-rule="nonzero" clip-path="url(#clip2)"><path style=" stroke:none;fill-rule:nonzero;fill:rgb(100%,34.118652%,34.118652%);fill-opacity:1;" d="M 374.863281 175.183594 C 374.863281 175.183594 294.652344 116.878906 142.542969 167.40625 C 142.542969 167.40625 271.960938 254.863281 374.863281 175.183594 "/></g><g clip-rule="nonzero" clip-path="url(#clip3)"><path style=" stroke:none;fill-rule:nonzero;fill:rgb(100%,100%,100%);fill-opacity:1;" d="M 0.140625 175.183594 C 0.140625 175.183594 62.273438 132.429688 163.234375 175.183594 C 264.195312 217.9375 374.863281 175.183594 374.863281 175.183594 C 374.863281 175.183594 370.980469 206.277344 359.332031 212.109375 C 347.679688 217.9375 223.421875 229.597656 151.585938 200.449219 C 79.746094 171.296875 21.5 196.558594 21.5 196.558594 C 21.5 196.558594 5.96875 186.84375 0.140625 175.183594 "/></g><path style=" stroke:none;fill-rule:nonzero;fill:rgb(100%,34.118652%,34.118652%);fill-opacity:1;" d="M 140.328125 177.636719 C 140.328125 177.636719 147.429688 87.734375 185.289062 83.847656 C 223.148438 79.960938 242.445312 128.730469 244.445312 193.742188 L 140.328125 177.636719 "/><path style=" stroke:none;fill-rule:nonzero;fill:rgb(100%,100%,100%);fill-opacity:1;" d="M 149.585938 172.425781 L 162.125 187.789062 L 175.960938 180.105469 L 163.234375 175.183594 L 149.585938 172.425781 "/><g clip-rule="nonzero" clip-path="url(#clip4)"><path style=" stroke:none;fill-rule:nonzero;fill:rgb(100%,34.118652%,34.118652%);fill-opacity:1;" d="M 21.5 196.558594 L 34.515625 161.210938 L 66.320312 186.9375 L 83.675781 156.339844 L 103.019531 187.789062 L 126.195312 162.652344 L 142.542969 193.738281 L 163.234375 175.183594 L 177.136719 208.6875 L 202.8125 187.789062 L 217.597656 216 L 244.445312 193.738281 L 258.703125 216 L 279.6875 193.738281 L 299.144531 216 L 318.351562 189.507812 L 339.585938 216 L 374.863281 175.183594 C 374.863281 175.183594 290.347656 195.316406 187.503906 168.730469 C 84.660156 142.148438 33.375 141.65625 0.140625 175.183594 L 21.5 196.558594 "/></g><path style=" stroke:none;fill-rule:nonzero;fill:rgb(100%,34.118652%,34.118652%);fill-opacity:1;" d="M 192.386719 83.746094 C 192.386719 83.746094 222.488281 102.671875 219.195312 175.628906 L 244.445312 180.105469 C 244.445312 180.105469 243.570312 88.378906 192.386719 83.746094 "/></g></svg>