<?xml version="1.0" encoding="UTF-8" standalone="no" ?>
<!DOCTYPE svg PUBLIC "-//W3C//DTD SVG 1.1//EN" "http://www.w3.org/Graphics/SVG/1.1/DTD/svg11.dtd">
<svg xmlns="http://www.w3.org/2000/svg" xmlns:xlink="http://www.w3.org/1999/xlink" version="1.1" width="508" height="264" viewBox="-2 78 508 264" xml:space="preserve">
<desc>Created with Fabric.js 4.6.0</desc>
<defs>
</defs>
<g transform="matrix(1.32 0 0 0.67 251.59 209.82)" id="ttqI1nKuI1CVQPTpvqoO9"  >
<path style="stroke: none; stroke-width: 1; stroke-dasharray: none; stroke-linecap: butt; stroke-dashoffset: 0; stroke-linejoin: miter; stroke-miterlimit: 4; fill: rgb(255,255,255); fill-opacity: 0; fill-rule: nonzero; opacity: 1;" vector-effect="non-scaling-stroke"  transform=" translate(0, 0)" d="M -187.5 187.5 L -187.5 -187.49999000000003 L 187.5 -187.49999000000003 L 187.5 187.5 z" stroke-linecap="round" />
</g>
<g transform="matrix(1.33 0 0 1.33 159.91 230.72)" id="IusmbisZZfEelnUkQYuC_"  >
<path style="stroke: none; stroke-width: 1; stroke-dasharray: none; stroke-linecap: butt; stroke-dashoffset: 0; stroke-linejoin: miter; stroke-miterlimit: 4; fill: rgb(16,185,129); fill-rule: nonzero; opacity: 1;" vector-effect="non-scaling-stroke"  transform=" translate(-119.06, -171.54)" d="M 119.0625 162.382812 C 114.027344 162.382812 109.929688 166.488281 109.929688 171.539062 C 109.929688 176.582031 114.027344 180.691406 119.0625 180.691406 C 124.097656 180.691406 128.195312 176.582031 128.195312 171.539062 C 128.195312 166.488281 124.097656 162.382812 119.0625 162.382812 Z M 119.0625 175.640625 C 116.804688 175.640625 114.96875 173.800781 114.96875 171.539062 C 114.96875 169.273438 116.804688 167.433594 119.0625 167.433594 C 121.320312 167.433594 123.15625 169.273438 123.15625 171.539062 C 123.15625 173.800781 121.320312 175.640625 119.0625 175.640625 Z M 119.0625 175.640625" stroke-linecap="round" />
</g>
<g transform="matrix(1.33 0 0 1.33 121.52 278.53)" id="FRmZshrDJm3PlIjwpXWHw"  >
<path style="stroke: none; stroke-width: 1; stroke-dasharray: none; stroke-linecap: butt; stroke-dashoffset: 0; stroke-linejoin: miter; stroke-miterlimit: 4; fill: rgb(16,185,129); fill-rule: nonzero; opacity: 1;" vector-effect="non-scaling-stroke"  transform=" translate(0, 0)" d="M 0 -8.19336 C -4.50391 -8.19336 -8.17187 -4.517580000000001 -8.17187 0.001949999999999008 C -8.17187 4.517569999999999 -4.5039 8.193359999999998 0.000009999999999621423 8.193359999999998 C 4.50782 8.193359999999998 8.17189 4.517579999999999 8.17189 0.001949999999999008 C 8.17189 -4.517580000000001 4.507829999999999 -8.19336 0.000019999999999242846 -8.19336 z M 0 3.14258 C -1.72656 3.14258 -3.13672 1.73242 -3.13672 0.0019599999999999618 C -3.13672 -1.73242 -1.7265599999999999 -3.14257 0 -3.14257 C 1.73047 -3.14257 3.13672 -1.73241 3.13672 0.0019599999999999618 C 3.13672 1.73243 1.73047 3.14258 0 3.14258 z M 0 3.14258" stroke-linecap="round" />
</g>
<g transform="matrix(1.33 0 0 1.33 123.27 241.4)" id="WI3ItZaa4tutM7KfnzKFT" clip-path="url(#CLIPPATH_12)"  >
<clipPath id="CLIPPATH_12" >
	<path transform="matrix(1 0 0 1 0 -0.25) translate(-91.31, -179)" id="clip1" d="M 5 108 L 177.621094 108 L 177.621094 250 L 5 250 Z M 5 108" stroke-linecap="round" />
</clipPath>
<path style="stroke: none; stroke-width: 1; stroke-dasharray: none; stroke-linecap: butt; stroke-dashoffset: 0; stroke-linejoin: miter; stroke-miterlimit: 4; fill: rgb(16,185,129); fill-rule: nonzero; opacity: 1;" vector-effect="non-scaling-stroke"  transform=" translate(0, 0)" d="M 85.91275 0.36566 C 84.92447 -7.05621 72.72134 -10.69684 64.02994000000001 -12.360899999999999 C 65.27603 -13.571839999999998 66.47916000000001 -14.802309999999999 67.59635000000002 -16.02496 C 75.82291000000001 -25.01715 78.75260000000002 -32.013239999999996 76.29557000000001 -36.817930000000004 C 72.43229000000001 -44.38434 56.66666000000001 -42.560120000000005 47.85807000000001 -40.864810000000006 C 49.01823000000001 -45.28278 49.83854000000001 -49.63434000000001 50.19401000000001 -53.450750000000006 C 50.990890000000014 -61.93122000000001 49.494790000000016 -67.37653 45.74479000000001 -69.63434000000001 C 41.12760000000001 -72.40778 34.09245000000001 -69.79450000000001 24.46354000000001 -62.325750000000006 C 12.233070000000009 -52.841370000000005 7.213540000000009 -43.52497000000001 6.916660000000007 -42.88434000000001 C 5.658850000000007 -43.16168000000001 4.3619700000000075 -43.30621000000001 3.0338500000000073 -43.30621000000001 C -6.259119999999993 -43.30621000000001 -13.95051999999999 -36.33355000000001 -15.126309999999993 -27.337460000000007 C -26.126309999999993 -25.161680000000008 -39.56380999999999 -21.470270000000006 -55.14192999999999 -15.278870000000007 L -75.11848999999998 -12.767150000000006 C -81.64973999999998 -11.946840000000007 -86.40754999999999 -6.142150000000006 -85.94661999999998 0.4398799999999934 L -84.72395999999998 17.881289999999993 C -84.36848999999998 22.986759999999993 -80.54036999999998 27.084419999999994 -75.61067999999997 27.881289999999993 L -74.38411999999997 30.84612999999999 C -73.61848999999997 32.68987999999999 -71.90755999999996 33.88909999999999 -69.91927999999997 33.97112999999999 C -69.84114999999997 33.975039999999986 -66.66146999999997 34.11956999999999 -65.20052999999997 31.23675999999999 L -63.77474999999997 28.48284999999999 L -55.411469999999966 28.853939999999987 L -54.23568999999996 31.685969999999987 C -53.47005999999996 33.53362999999999 -51.75912999999996 34.73283999999999 -49.77084999999996 34.81487999999999 C -49.69271999999996 34.818789999999986 -46.60678999999996 34.93206999999999 -45.05209999999996 32.08050999999999 L -43.65365999999996 29.37738999999999 L -35.23959999999996 29.75238999999999 L -34.08725999999996 32.529729999999994 C -33.903669999999956 32.97894999999999 -33.661479999999955 33.38519999999999 -33.37631999999996 33.748479999999994 L -33.90756999999996 33.896919999999994 L -35.825539999999954 31.611759999999993 C -37.11069999999995 30.084419999999994 -39.102879999999956 29.459419999999994 -41.02475999999996 29.982849999999992 C -42.95053999999996 30.50237999999999 -44.35678999999996 32.04925999999999 -44.696629999999956 34.01409999999999 L -45.21615999999996 36.99846999999999 L -53.33724999999996 39.22502999999999 L -55.28646999999996 36.90471999999999 C -56.571629999999956 35.37737999999999 -58.56380999999996 34.75237999999999 -60.48959999999996 35.27190999999999 C -62.41146999999996 35.79534999999999 -63.81771999999996 37.34221999999999 -64.16146999999997 39.30706999999999 L -64.68490999999996 42.33831999999999 L -73.23177999999996 44.68206999999999 C -78.39974999999995 46.100039999999986 -81.73958999999996 51.00628999999999 -81.18099999999995 56.34612999999999 L -80.45443999999995 63.23675999999999 C -80.21224999999995 65.54144999999998 -77.63802999999994 71.4477 -70.68880999999995 70.63909999999998 L 11.03775000000006 56.506289999999986 C 11.90494000000006 56.36956999999999 23.24088000000006 54.475039999999986 32.45963000000006 46.74847999999999 C 44.354160000000064 54.61175999999999 68.89322000000007 52.45550999999999 71.39713000000006 51.90472999999999 C 75.94010000000006 50.90081999999999 78.86588000000006 48.96331999999999 80.08072000000006 46.14691999999999 C 83.62369000000005 37.95941999999999 70.92056000000005 26.22504999999999 63.705720000000056 20.420359999999988 C 66.14713000000006 19.377389999999988 68.56119000000005 18.232859999999988 70.78384000000005 17.053169999999987 C 75.30728000000005 14.643009999999988 78.89322000000006 12.201609999999988 81.43228000000005 9.787549999999987 C 84.81119000000005 6.5805199999999875 86.31900000000005 3.412549999999987 85.91275000000005 0.3656799999999869 z M 27.61197 -58.38434 C 33.07681 -62.51715 40.23697 -67.05621000000001 43.15103 -65.30231 C 46.89712 -63.052310000000006 45.78384 -49.07965 40.72134 -34.79059000000001 C 40.256499999999996 -33.47418000000001 40.94009 -32.03278000000001 42.25259 -31.56403000000001 C 42.52993 -31.46637000000001 44.787749999999996 -31.267150000000008 45.46743 -33.09919000000001 C 45.74477 -33.84919000000001 45.99087 -34.610910000000004 46.24087 -35.37653000000001 C 59.20181 -38.25934000000001 70.069 -37.92731000000001 71.81118000000001 -34.513250000000006 C 73.36196000000001 -31.478090000000005 68.5104 -24.497620000000005 63.88149000000001 -19.439030000000006 C 59.74087000000001 -14.911690000000007 54.84633000000001 -10.677310000000006 50.983050000000006 -7.872620000000007 C 50.897110000000005 -20.638240000000007 40.51039000000001 -31.00153000000001 27.752580000000005 -31.00153000000001 C 25.318990000000007 -31.00153000000001 22.951800000000006 -30.62653000000001 20.678360000000005 -29.89606000000001 C 19.311170000000004 -34.794500000000006 15.979140000000005 -38.802310000000006 11.666640000000005 -41.12653000000001 C 11.838520000000004 -41.47809000000001 17.369770000000003 -50.63434000000001 27.611950000000004 -58.38434000000001 z M 12.09243 -0.67341 C 13.115870000000001 1.4437799999999998 15.08852 0.74456 15.42446 0.5922200000000001 C 16.69399 0.021910000000000096 17.2604 -1.4741899999999997 16.69008 -2.74762 C 15.986959999999998 -4.3101199999999995 15.627579999999998 -5.98199 15.627579999999998 -7.70856 C 15.627579999999998 -8.97028 15.822889999999997 -10.21247 16.2018 -11.39997 C 18.29946 -13.14606 19.811169999999997 -15.22809 20.729139999999997 -17.60309 C 22.791639999999997 -19.075750000000003 25.209609999999998 -19.857000000000003 27.744769999999995 -19.857000000000003 C 34.42836 -19.857000000000003 39.86586 -14.407780000000002 39.86586 -7.708560000000002 C 39.86586 -1.013250000000002 34.42836 4.4359699999999975 27.744769999999995 4.4359699999999975 C 26.256489999999996 4.4359699999999975 24.803359999999994 4.166439999999998 23.428359999999994 3.6390999999999973 C 22.127579999999995 3.1390999999999973 20.670549999999995 3.7914399999999975 20.174449999999993 5.092229999999997 C 19.678359999999994 6.396919999999997 20.326789999999992 7.857859999999997 21.623669999999994 8.353949999999998 C 23.580699999999993 9.107859999999997 25.63929999999999 9.486759999999997 27.744759999999992 9.486759999999997 C 37.20569999999999 9.486759999999997 44.90100999999999 1.771919999999997 44.90100999999999 -7.7085500000000025 C 44.90100999999999 -17.19292 37.20569999999999 -24.907770000000003 27.744759999999992 -24.907770000000003 C 25.682259999999992 -24.907770000000003 23.670539999999992 -24.544490000000003 21.776009999999992 -23.837460000000004 C 21.77209999999999 -24.196830000000002 21.756479999999993 -24.560120000000005 21.72912999999999 -24.927300000000002 C 23.65490999999999 -25.606990000000003 25.670539999999992 -25.950740000000003 27.75256999999999 -25.950740000000003 C 37.78381999999999 -25.950740000000003 45.94787999999999 -17.771050000000002 45.94787999999999 -7.7085500000000025 C 45.94787999999999 2.350039999999998 37.78381999999999 10.529729999999997 27.75256999999999 10.529729999999997 C 17.736949999999993 10.529729999999997 9.584599999999991 2.3773899999999966 9.557259999999992 -7.657770000000003 C 9.912729999999993 -7.794490000000003 10.260379999999993 -7.931210000000003 10.596319999999992 -8.075740000000003 C 10.596319999999992 -7.9546500000000036 10.342409999999992 -4.306210000000004 12.092409999999992 -0.6734000000000036 z M 3.03384 -38.25544 C 8.39322 -38.25544 13.162749999999999 -35.00153 15.229149999999999 -30.22419 C 10.623679999999998 -30.40388 2.111959999999998 -30.28669 -9.82163 -28.30232 C -8.329440000000002 -34.02107 -3.1341300000000007 -38.25544 3.0338399999999996 -38.25544 z M 16.66275 -25.07966 C 17.10025 -20.9781 15.932279999999999 -17.79841 13.11197 -15.39216 C 7.20963 -10.36091 -5.67709 -8.55622 -24.153660000000002 -10.17341 C -32.743500000000004 -10.92732 -40.60678 -12.25153 -46.02866 -13.34528 C -12.145850000000003 -25.63434 10.315089999999998 -25.45856 16.662749999999996 -25.07965 z M -17.6185 2.7055 C -13.884120000000001 2.7055 -10.360690000000002 0.1820599999999999 -10.860690000000002 -4.55231 C -8.341160000000002 -4.57575 -5.962250000000002 -4.689030000000001 -3.7278800000000016 -4.88434 C -3.7278800000000016 4.83441 -9.954440000000002 9.30316 -17.61851 9.30316 C -25.28257 9.30316 -31.51695 3.05316 -31.51695 -4.626530000000001 C -31.51695 -5.044500000000001 -31.489610000000003 -5.45856 -31.45445 -5.87262 C -29.58726 -5.64215 -27.66929 -5.42731 -25.72007 -5.24762 C -25.24741 -5.200740000000001 -24.77866 -5.1616800000000005 -24.30991 -5.11871 C -24.485689999999998 0.8852000000000002 -21.35678 2.7055100000000003 -17.618499999999997 2.7055100000000003 z M -19.22397 -4.75934 C -18.114600000000003 -4.69684 -17.03256 -4.64996 -15.966160000000002 -4.61481 C -15.524750000000003 -3.2085600000000003 -16.66147 -2.3413700000000004 -17.6185 -2.3413700000000004 C -18.57944 -2.3413700000000004 -19.681 -3.2437100000000005 -19.22397 -4.75934 z M -80.81382 1.60394 C -78.86851 2.04925 -77.43101 3.5726899999999997 -77.43101 5.38519 C -77.43101 7.03363 -78.61851 8.44378 -80.29429 9.02191 z M -74.13022 22.96722 C -76.75522 22.85003 -78.9271 21.00628 -79.54038 18.52581 L -15.149749999999997 22.09612 C -15.622409999999997 23.185959999999998 -15.970059999999997 24.33831 -16.177089999999996 25.54143 z M -71.89975 49.55316 L -15.235689999999998 34.00629 C -14.595059999999998 35.53363 -13.716159999999999 36.93598 -12.645849999999998 38.16645 L -76.16929 55.81489 C -76.47007 52.9477 -74.67710000000001 50.31489 -71.89976 49.553169999999994 z M 10.2565 51.51409 L 10.205720000000001 51.52581 L -71.54819 65.66253 C -74.65756 65.92816 -75.34506 63.63909 -75.44663 62.7055 L -75.62241 61.02581 L -7.559910000000002 41.98675 C -5.626320000000002 42.881280000000004 -3.4739700000000022 43.38519 -1.2044400000000017 43.38519 C 7.1783699999999975 43.38519 13.994779999999999 36.54925 13.994779999999999 28.150820000000003 C 13.994779999999999 19.74848 7.178369999999998 12.912540000000003 -1.2044400000000017 12.912540000000003 C -5.313810000000002 12.912540000000003 -9.048190000000002 14.557070000000003 -11.786470000000001 17.225040000000003 L -78.02475000000001 13.553160000000004 C -74.70834 12.143000000000004 -72.39194 9.014100000000003 -72.39194 5.385190000000003 C -72.39194 0.9789400000000033 -75.80991 -2.6968399999999964 -80.29819 -3.439029999999997 C -79.27866 -5.724189999999997 -77.13022000000001 -7.423399999999997 -74.49350000000001 -7.7554399999999974 L -61.18100000000001 -9.431219999999998 L -59.58725000000001 7.201590000000001 C -59.46225000000001 8.510180000000002 -58.36850000000001 9.48675 -57.083340000000014 9.48675 C -57.00521000000001 9.48675 -54.294280000000015 9.107840000000001 -54.57162000000002 6.7211300000000005 L -56.180990000000016 -10.06012 L -54.82552000000002 -10.23199 C -52.43489000000002 -9.47808 -45.34896000000002 -7.8648 -36.45052000000002 -6.5523 C -36.51302000000002 -5.91558 -36.555990000000016 -5.27105 -36.555990000000016 -4.626519999999999 C -36.555990000000016 5.838320000000001 -28.059900000000013 14.35004 -17.618490000000016 14.35004 C -7.1809900000000155 14.35004 1.3150999999999833 5.8383199999999995 1.3150999999999833 -4.626519999999999 C 1.3150999999999833 -4.9233899999999995 1.3072899999999832 -5.216359999999999 1.2916599999999834 -5.509329999999999 C 2.432289999999983 -5.696829999999999 3.5299399999999834 -5.915579999999999 4.576819999999984 -6.157769999999999 C 5.377599999999983 5.963320000000001 15.463539999999984 15.58051 27.752599999999983 15.58051 C 31.58072999999998 15.58051 35.194009999999984 14.639100000000001 38.381509999999984 12.98676 C 40.19009999999999 22.31879 38.998699999999985 30.2641 34.82291999999998 36.6391 C 26.84244999999998 48.82269 10.416669999999982 51.49066 10.256509999999981 51.5141 z M -11.3646 28.15081 C -11.3646 22.52972 -6.80601 17.96331 -1.20444 17.96331 C 4.40103 17.96331 8.95962 22.52972 8.95962 28.15081 C 8.95962 33.768 4.4010299999999996 38.3344 -1.20444 38.3344 C -6.806 38.3344 -11.3646 33.767990000000005 -11.3646 28.15081 z M 70.74478 33.98675 C 74.52994000000001 38.42425 76.29165 42.21722 75.45962 44.13909 C 74.61196 46.096120000000006 69.74478 48.17034 58.807280000000006 47.5805 C 50.057280000000006 47.10784 41.60806000000001 46.12737 36.244780000000006 43.068780000000004 C 37.22525 41.95159 38.15494 40.748470000000005 39.010400000000004 39.44769 C 41.74868000000001 35.27972 43.41274000000001 30.596130000000002 44.002590000000005 25.43597 C 44.502590000000005 25.47503 49.77993000000001 26.46722 58.26822000000001 22.56097 C 63.115880000000004 26.19769 67.58853 30.283630000000002 70.74478 33.98675 z M 68.42056 12.59222 C 53.037749999999996 20.9555 45.31117999999999 20.49066 44.240869999999994 20.39691 C 44.18617999999999 17.080499999999997 43.733059999999995 13.592219999999998 42.8854 9.939879999999999 C 46.25649 7.029719999999999 48.78774 3.170349999999999 50.06117999999999 -1.2241800000000005 C 52.678369999999994 -2.7359000000000004 55.97914999999999 -5.189020000000001 59.299459999999996 -8.040590000000002 C 64.97524 -7.200750000000002 70.14712 -5.915590000000002 73.96743 -4.380430000000002 C 78.15101999999999 -2.6968400000000026 80.68226999999999 -0.7241800000000023 80.92056 1.0375399999999981 C 81.20181 3.150819999999998 78.04947 7.357849999999998 68.42056 12.592229999999999 z M 68.42056 12.59222" stroke-linecap="round" />
</g>
<g transform="matrix(1.33 0 0 1.33 85.98 154.21)" id="oStMSqA-891_RZR59W4ml" clip-path="url(#CLIPPATH_13)"  >
<clipPath id="CLIPPATH_13" >
	<path transform="matrix(1 0 0 1 -9.61 -8.5) translate(-54.58, -106.9)" id="clip6" d="M -23.238281 101.050781 L 90.136719 37.4375 L 132.398438 112.757812 L 19.023438 176.371094 Z M -23.238281 101.050781" stroke-linecap="round" />
</clipPath>
<path style="stroke: none; stroke-width: 1; stroke-dasharray: none; stroke-linecap: butt; stroke-dashoffset: 0; stroke-linejoin: miter; stroke-miterlimit: 4; fill: rgb(16,185,129); fill-rule: nonzero; opacity: 1;" vector-effect="non-scaling-stroke"  transform=" translate(-64.19, -115.4)" d="M 107.398438 120.667969 L 107.363281 120.726562 C 107.347656 120.75 105.816406 123.230469 101.195312 125.820312 L 46.453125 156.539062 C 41.832031 159.132812 38.921875 159.144531 38.914062 159.144531 L 38.824219 159.140625 C 32.730469 159.246094 27.097656 157.832031 22.058594 154.949219 C 22.453125 153.191406 22.226562 151.285156 21.277344 149.589844 C 20.625 148.425781 19.703125 147.5 18.636719 146.847656 L 23.441406 144.152344 C 23.445312 145.398438 23.753906 146.667969 24.410156 147.832031 C 26.449219 151.46875 31.054688 152.769531 34.679688 150.734375 C 38.304688 148.703125 39.59375 144.089844 37.554688 140.457031 C 36.898438 139.292969 35.980469 138.367188 34.914062 137.714844 L 41.019531 134.289062 C 41.019531 135.539062 41.332031 136.804688 41.984375 137.972656 C 44.023438 141.605469 48.628906 142.90625 52.253906 140.875 C 55.878906 138.839844 57.167969 134.230469 55.128906 130.597656 C 54.476562 129.429688 53.554688 128.503906 52.488281 127.851562 L 57.292969 125.15625 C 57.296875 126.40625 57.605469 127.671875 58.261719 128.839844 C 60.300781 132.472656 64.90625 133.777344 68.53125 131.742188 C 72.15625 129.707031 73.441406 125.097656 71.402344 121.464844 C 70.75 120.296875 69.832031 119.375 68.765625 118.71875 L 73.570312 116.023438 C 73.570312 117.273438 73.878906 118.539062 74.535156 119.707031 C 76.574219 123.339844 81.183594 124.644531 84.804688 122.609375 C 88.429688 120.578125 89.71875 115.964844 87.679688 112.332031 C 87.027344 111.164062 86.105469 110.242188 85.039062 109.585938 L 91.144531 106.164062 C 91.148438 107.410156 91.457031 108.679688 92.113281 109.84375 C 94.152344 113.480469 98.757812 114.78125 102.382812 112.75 C 106.007812 110.714844 107.292969 106.105469 105.253906 102.46875 C 104.601562 101.304688 103.683594 100.378906 102.617188 99.726562 L 107.421875 97.03125 C 107.421875 98.277344 107.730469 99.546875 108.386719 100.714844 C 109.335938 102.40625 110.847656 103.59375 112.554688 104.171875 C 112.390625 109.976562 110.660156 115.519531 107.398438 120.667969 Z M 11.5 155.074219 C 10.507812 153.304688 11.136719 151.054688 12.902344 150.0625 C 14.667969 149.074219 16.914062 149.707031 17.910156 151.480469 C 18.902344 153.25 18.273438 155.5 16.507812 156.488281 C 14.742188 157.480469 12.496094 156.847656 11.5 155.074219 Z M 34.183594 142.347656 C 35.179688 144.121094 34.550781 146.367188 32.785156 147.359375 C 31.015625 148.347656 28.769531 147.714844 27.777344 145.941406 C 26.78125 144.171875 27.410156 141.921875 29.179688 140.933594 C 30.945312 139.941406 33.191406 140.574219 34.183594 142.347656 Z M 51.761719 132.484375 C 52.753906 134.257812 52.125 136.503906 50.359375 137.496094 C 48.59375 138.488281 46.347656 137.851562 45.351562 136.082031 C 44.359375 134.308594 44.988281 132.0625 46.753906 131.070312 C 48.519531 130.078125 50.765625 130.714844 51.761719 132.484375 Z M 68.035156 123.355469 C 69.03125 125.125 68.402344 127.371094 66.632812 128.363281 C 64.867188 129.355469 62.621094 128.722656 61.628906 126.949219 C 60.632812 125.175781 61.261719 122.929688 63.027344 121.9375 C 64.796875 120.945312 67.042969 121.582031 68.035156 123.355469 Z M 84.3125 114.222656 C 85.304688 115.992188 84.675781 118.242188 82.910156 119.230469 C 81.144531 120.222656 78.898438 119.589844 77.902344 117.816406 C 76.910156 116.042969 77.539062 113.796875 79.304688 112.804688 C 81.070312 111.816406 83.316406 112.449219 84.3125 114.222656 Z M 101.886719 104.359375 C 102.882812 106.132812 102.253906 108.378906 100.484375 109.371094 C 98.71875 110.363281 96.472656 109.726562 95.480469 107.957031 C 94.484375 106.183594 95.113281 103.9375 96.878906 102.945312 C 98.648438 101.953125 100.894531 102.585938 101.886719 104.359375 Z M 10.171875 141.667969 C 10.316406 141.082031 10.757812 140.589844 11.519531 140.164062 L 105.425781 87.472656 C 106.179688 87.046875 106.828125 86.929688 107.398438 87.101562 C 108.332031 87.386719 109.695312 89.664062 110.242188 91.03125 C 110.152344 91.066406 12.035156 146.109375 12.035156 146.109375 C 11.160156 144.941406 9.894531 142.78125 10.171875 141.667969 Z M 36.078125 111.003906 L 57.75 98.84375 C 58.679688 98.324219 59.007812 97.144531 58.484375 96.210938 C 57.960938 95.277344 56.78125 94.945312 55.851562 95.46875 L 34.878906 107.234375 C 33.757812 103.503906 32.777344 99.679688 32.058594 95.980469 L 57.277344 81.832031 C 60.023438 84.371094 62.746094 87.214844 65.324219 90.152344 L 60.792969 92.695312 C 59.863281 93.21875 59.53125 94.394531 60.058594 95.328125 C 60.578125 96.261719 61.757812 96.59375 62.6875 96.074219 L 67.882812 93.160156 C 70.007812 95.730469 71.992188 98.320312 73.765625 100.796875 L 39.4375 120.058594 C 38.289062 117.28125 37.140625 114.210938 36.078125 111.003906 Z M 35.355469 72.617188 C 40.167969 69.917969 47.121094 73.257812 54.1875 79.121094 L 31.371094 91.925781 C 30.085938 82.867188 30.769531 75.191406 35.355469 72.617188 Z M 121.15625 92.738281 C 119.460938 90.277344 116.589844 89.121094 113.808594 89.550781 C 113.242188 88.136719 112.773438 87.25 112.65625 87.035156 C 112.421875 86.574219 111.117188 84.214844 108.5625 83.414062 C 107.445312 83.0625 105.667969 82.894531 103.53125 84.09375 L 77.152344 98.894531 C 74.140625 94.667969 66.542969 84.585938 57.570312 76.902344 C 47.648438 68.40625 39.535156 65.828125 33.460938 69.238281 C 27.640625 72.503906 25.695312 80.660156 27.675781 93.484375 C 29.53125 105.492188 34.140625 117.390625 36.042969 121.960938 L 9.625 136.785156 C 7.488281 137.984375 6.703125 139.589844 6.421875 140.726562 C 5.773438 143.324219 7.105469 145.667969 7.378906 146.109375 C 7.5 146.316406 8.011719 147.179688 8.929688 148.40625 C 6.972656 150.742188 6.550781 154.148438 8.132812 156.964844 C 10.171875 160.597656 14.777344 161.902344 18.402344 159.867188 C 19.121094 159.464844 19.75 158.957031 20.273438 158.378906 C 25.882812 161.5625 32.125 163.121094 38.867188 163.015625 C 39.46875 163.019531 42.996094 162.917969 48.351562 159.914062 L 103.09375 129.199219 C 108.445312 126.195312 110.371094 123.234375 110.679688 122.71875 C 114.28125 117.023438 116.203125 110.882812 116.410156 104.4375 C 117.179688 104.289062 117.9375 104.019531 118.65625 103.617188 C 120.1875 102.757812 121.375 101.382812 122 99.746094 C 122.382812 98.75 121.882812 97.628906 120.886719 97.246094 C 119.890625 96.859375 118.773438 97.355469 118.390625 98.355469 C 118.082031 99.164062 117.519531 99.8125 116.761719 100.238281 C 114.996094 101.230469 112.75 100.59375 111.753906 98.824219 C 110.761719 97.050781 111.390625 94.804688 113.15625 93.8125 C 114.820312 92.878906 116.894531 93.359375 117.976562 94.933594 C 118.585938 95.8125 119.789062 96.035156 120.667969 95.429688 C 121.546875 94.824219 121.765625 93.617188 121.15625 92.738281" stroke-linecap="round" />
</g>
<g transform="matrix(1.33 0 0 1.33 314.47 249.45)" id="qVizm2UQAevjTvjyEi0R_"  >
<path style="stroke: none; stroke-width: 1; stroke-dasharray: none; stroke-linecap: butt; stroke-dashoffset: 0; stroke-linejoin: miter; stroke-miterlimit: 4; fill: rgb(16,185,129); fill-rule: nonzero; opacity: 1;" vector-effect="non-scaling-stroke"  transform=" translate(-55.8, 41.18)" d="M 44.78125 0 L 27.9375 -59.328125 L 27.4375 -59.328125 C 28.226562 -49.222656 28.625 -41.367188 28.625 -35.765625 L 28.625 0 L 8.90625 0 L 8.90625 -82.359375 L 38.53125 -82.359375 L 55.71875 -23.890625 L 56.171875 -23.890625 L 73.015625 -82.359375 L 102.703125 -82.359375 L 102.703125 0 L 82.25 0 L 82.25 -36.109375 C 82.25 -37.984375 82.273438 -40.066406 82.328125 -42.359375 C 82.390625 -44.648438 82.644531 -50.265625 83.09375 -59.203125 L 82.59375 -59.203125 L 65.96875 0 Z M 44.78125 0" stroke-linecap="round" />
</g>
<g transform="matrix(1.33 0 0 1.33 439.13 249.45)" id="VVWDMKjRKuQsAwiIQ09Ed"  >
<path style="stroke: none; stroke-width: 1; stroke-dasharray: none; stroke-linecap: butt; stroke-dashoffset: 0; stroke-linejoin: miter; stroke-miterlimit: 4; fill: rgb(16,185,129); fill-rule: nonzero; opacity: 1;" vector-effect="non-scaling-stroke"  transform=" translate(-40.02, 41.18)" d="M 55.15625 -82.359375 L 80.046875 -82.359375 L 53.0625 0 L 26.875 0 L 0 -82.359375 L 25.015625 -82.359375 L 36.21875 -40.625 C 38.550781 -31.34375 39.828125 -24.878906 40.046875 -21.234375 C 40.316406 -23.867188 40.84375 -27.15625 41.625 -31.09375 C 42.414062 -35.039062 43.113281 -38.140625 43.71875 -40.390625 Z M 55.15625 -82.359375" stroke-linecap="round" />
</g>
</svg>