<?xml version="1.0" encoding="UTF-8" standalone="no" ?>
<!DOCTYPE svg PUBLIC "-//W3C//DTD SVG 1.1//EN" "http://www.w3.org/Graphics/SVG/1.1/DTD/svg11.dtd">
<svg xmlns="http://www.w3.org/2000/svg" xmlns:xlink="http://www.w3.org/1999/xlink" version="1.1" width="508" height="264" viewBox="-2 80 508 264" xml:space="preserve">
<desc>Created with Fabric.js 4.6.0</desc>
<defs>
</defs>
<g transform="matrix(1.32 0 0 0.67 251.74 212.54)" id="ttqI1nKuI1CVQPTpvqoO9"  >
<path style="stroke: none; stroke-width: 1; stroke-dasharray: none; stroke-linecap: butt; stroke-dashoffset: 0; stroke-linejoin: miter; stroke-miterlimit: 4; fill: rgb(255,255,255); fill-rule: nonzero; opacity: 1;" vector-effect="non-scaling-stroke"  transform=" translate(-187.5, -187.5)" d="M 0 374.99999 L 0 0 L 375 0 L 375 374.99999 z" stroke-linecap="round" />
</g>
<g transform="matrix(1.33 0 0 1.33 159.14 228.72)" id="IusmbisZZfEelnUkQYuC_"  >
<path style="stroke: none; stroke-width: 1; stroke-dasharray: none; stroke-linecap: butt; stroke-dashoffset: 0; stroke-linejoin: miter; stroke-miterlimit: 4; fill: rgb(5,127,81); fill-rule: nonzero; opacity: 1;" vector-effect="non-scaling-stroke"  transform=" translate(-119.06, -171.54)" d="M 119.0625 162.382812 C 114.027344 162.382812 109.929688 166.488281 109.929688 171.539062 C 109.929688 176.582031 114.027344 180.691406 119.0625 180.691406 C 124.097656 180.691406 128.195312 176.582031 128.195312 171.539062 C 128.195312 166.488281 124.097656 162.382812 119.0625 162.382812 Z M 119.0625 175.640625 C 116.804688 175.640625 114.96875 173.800781 114.96875 171.539062 C 114.96875 169.273438 116.804688 167.433594 119.0625 167.433594 C 121.320312 167.433594 123.15625 169.273438 123.15625 171.539062 C 123.15625 173.800781 121.320312 175.640625 119.0625 175.640625 Z M 119.0625 175.640625" stroke-linecap="round" />
</g>
<g transform="matrix(1.33 0 0 1.33 120.52 276.53)" id="FRmZshrDJm3PlIjwpXWHw"  >
<path style="stroke: none; stroke-width: 1; stroke-dasharray: none; stroke-linecap: butt; stroke-dashoffset: 0; stroke-linejoin: miter; stroke-miterlimit: 4; fill: rgb(5,127,81); fill-rule: nonzero; opacity: 1;" vector-effect="non-scaling-stroke"  transform=" translate(-90.11, -207.4)" d="M 90.105469 199.203125 C 85.601562 199.203125 81.933594 202.878906 81.933594 207.398438 C 81.933594 211.914062 85.601562 215.589844 90.105469 215.589844 C 94.613281 215.589844 98.277344 211.914062 98.277344 207.398438 C 98.277344 202.878906 94.613281 199.203125 90.105469 199.203125 Z M 90.105469 210.539062 C 88.378906 210.539062 86.96875 209.128906 86.96875 207.398438 C 86.96875 205.664062 88.378906 204.253906 90.105469 204.253906 C 91.835938 204.253906 93.242188 205.664062 93.242188 207.398438 C 93.242188 209.128906 91.835938 210.539062 90.105469 210.539062 Z M 90.105469 210.539062" stroke-linecap="round" />
</g>
<g transform="matrix(1.33 0 0 1.33 122.14 239)" id="WI3ItZaa4tutM7KfnzKFT" clip-path="url(#CLIPPATH_6)"  >
<clipPath id="CLIPPATH_6" >
	<path transform="matrix(1 0 0 1 0 -0.25) translate(-91.31, -179)" id="clip1" d="M 5 108 L 177.621094 108 L 177.621094 250 L 5 250 Z M 5 108" stroke-linecap="round" />
</clipPath>
<path style="stroke: none; stroke-width: 1; stroke-dasharray: none; stroke-linecap: butt; stroke-dashoffset: 0; stroke-linejoin: miter; stroke-miterlimit: 4; fill: rgb(5,127,81); fill-rule: nonzero; opacity: 1;" vector-effect="non-scaling-stroke"  transform=" translate(-91.31, -179.25)" d="M 177.222656 179.613281 C 176.234375 172.191406 164.03125 168.550781 155.339844 166.886719 C 156.585938 165.675781 157.789062 164.445312 158.90625 163.222656 C 167.132812 154.230469 170.0625 147.234375 167.605469 142.429688 C 163.742188 134.863281 147.976562 136.6875 139.167969 138.382812 C 140.328125 133.964844 141.148438 129.613281 141.503906 125.796875 C 142.300781 117.316406 140.804688 111.871094 137.054688 109.613281 C 132.4375 106.839844 125.402344 109.453125 115.773438 116.921875 C 103.542969 126.40625 98.523438 135.722656 98.226562 136.363281 C 96.96875 136.085938 95.671875 135.941406 94.34375 135.941406 C 85.050781 135.941406 77.359375 142.914062 76.183594 151.910156 C 65.183594 154.085938 51.746094 157.777344 36.167969 163.96875 L 16.191406 166.480469 C 9.660156 167.300781 4.902344 173.105469 5.363281 179.6875 L 6.585938 197.128906 C 6.941406 202.234375 10.769531 206.332031 15.699219 207.128906 L 16.925781 210.09375 C 17.691406 211.9375 19.402344 213.136719 21.390625 213.21875 C 21.46875 213.222656 24.648438 213.367188 26.109375 210.484375 L 27.535156 207.730469 L 35.898438 208.101562 L 37.074219 210.933594 C 37.839844 212.78125 39.550781 213.980469 41.539062 214.0625 C 41.617188 214.066406 44.703125 214.179688 46.257812 211.328125 L 47.65625 208.625 L 56.070312 209 L 57.222656 211.777344 C 57.40625 212.226562 57.648438 212.632812 57.933594 212.996094 L 57.402344 213.144531 L 55.484375 210.859375 C 54.199219 209.332031 52.207031 208.707031 50.285156 209.230469 C 48.359375 209.75 46.953125 211.296875 46.613281 213.261719 L 46.09375 216.246094 L 37.972656 218.472656 L 36.023438 216.152344 C 34.738281 214.625 32.746094 214 30.820312 214.519531 C 28.898438 215.042969 27.492188 216.589844 27.148438 218.554688 L 26.625 221.585938 L 18.078125 223.929688 C 12.910156 225.347656 9.570312 230.253906 10.128906 235.59375 L 10.855469 242.484375 C 11.097656 244.789062 13.671875 250.695312 20.621094 249.886719 L 102.347656 235.753906 C 103.214844 235.617188 114.550781 233.722656 123.769531 225.996094 C 135.664062 233.859375 160.203125 231.703125 162.707031 231.152344 C 167.25 230.148438 170.175781 228.210938 171.390625 225.394531 C 174.933594 217.207031 162.230469 205.472656 155.015625 199.667969 C 157.457031 198.625 159.871094 197.480469 162.09375 196.300781 C 166.617188 193.890625 170.203125 191.449219 172.742188 189.035156 C 176.121094 185.828125 177.628906 182.660156 177.222656 179.613281 Z M 118.921875 120.863281 C 124.386719 116.730469 131.546875 112.191406 134.460938 113.945312 C 138.207031 116.195312 137.09375 130.167969 132.03125 144.457031 C 131.566406 145.773438 132.25 147.214844 133.5625 147.683594 C 133.839844 147.78125 136.097656 147.980469 136.777344 146.148438 C 137.054688 145.398438 137.300781 144.636719 137.550781 143.871094 C 150.511719 140.988281 161.378906 141.320312 163.121094 144.734375 C 164.671875 147.769531 159.820312 154.75 155.191406 159.808594 C 151.050781 164.335938 146.15625 168.570312 142.292969 171.375 C 142.207031 158.609375 131.820312 148.246094 119.0625 148.246094 C 116.628906 148.246094 114.261719 148.621094 111.988281 149.351562 C 110.621094 144.453125 107.289062 140.445312 102.976562 138.121094 C 103.148438 137.769531 108.679688 128.613281 118.921875 120.863281 Z M 103.402344 178.574219 C 104.425781 180.691406 106.398438 179.992188 106.734375 179.839844 C 108.003906 179.269531 108.570312 177.773438 108 176.5 C 107.296875 174.9375 106.9375 173.265625 106.9375 171.539062 C 106.9375 170.277344 107.132812 169.035156 107.511719 167.847656 C 109.609375 166.101562 111.121094 164.019531 112.039062 161.644531 C 114.101562 160.171875 116.519531 159.390625 119.054688 159.390625 C 125.738281 159.390625 131.175781 164.839844 131.175781 171.539062 C 131.175781 178.234375 125.738281 183.683594 119.054688 183.683594 C 117.566406 183.683594 116.113281 183.414062 114.738281 182.886719 C 113.4375 182.386719 111.980469 183.039062 111.484375 184.339844 C 110.988281 185.644531 111.636719 187.105469 112.933594 187.601562 C 114.890625 188.355469 116.949219 188.734375 119.054688 188.734375 C 128.515625 188.734375 136.210938 181.019531 136.210938 171.539062 C 136.210938 162.054688 128.515625 154.339844 119.054688 154.339844 C 116.992188 154.339844 114.980469 154.703125 113.085938 155.410156 C 113.082031 155.050781 113.066406 154.6875 113.039062 154.320312 C 114.964844 153.640625 116.980469 153.296875 119.0625 153.296875 C 129.09375 153.296875 137.257812 161.476562 137.257812 171.539062 C 137.257812 181.597656 129.09375 189.777344 119.0625 189.777344 C 109.046875 189.777344 100.894531 181.625 100.867188 171.589844 C 101.222656 171.453125 101.570312 171.316406 101.90625 171.171875 C 101.90625 171.292969 101.652344 174.941406 103.402344 178.574219 Z M 94.34375 140.992188 C 99.703125 140.992188 104.472656 144.246094 106.539062 149.023438 C 101.933594 148.84375 93.421875 148.960938 81.488281 150.945312 C 82.980469 145.226562 88.175781 140.992188 94.34375 140.992188 Z M 107.972656 154.167969 C 108.410156 158.269531 107.242188 161.449219 104.421875 163.855469 C 98.519531 168.886719 85.632812 170.691406 67.15625 169.074219 C 58.566406 168.320312 50.703125 166.996094 45.28125 165.902344 C 79.164062 153.613281 101.625 153.789062 107.972656 154.167969 Z M 73.691406 181.953125 C 77.425781 181.953125 80.949219 179.429688 80.449219 174.695312 C 82.96875 174.671875 85.347656 174.558594 87.582031 174.363281 C 87.582031 184.082031 81.355469 188.550781 73.691406 188.550781 C 66.027344 188.550781 59.792969 182.300781 59.792969 174.621094 C 59.792969 174.203125 59.820312 173.789062 59.855469 173.375 C 61.722656 173.605469 63.640625 173.820312 65.589844 174 C 66.0625 174.046875 66.53125 174.085938 67 174.128906 C 66.824219 180.132812 69.953125 181.953125 73.691406 181.953125 Z M 72.085938 174.488281 C 73.195312 174.550781 74.277344 174.597656 75.34375 174.632812 C 75.785156 176.039062 74.648438 176.90625 73.691406 176.90625 C 72.730469 176.90625 71.628906 176.003906 72.085938 174.488281 Z M 10.496094 180.851562 C 12.441406 181.296875 13.878906 182.820312 13.878906 184.632812 C 13.878906 186.28125 12.691406 187.691406 11.015625 188.269531 Z M 17.179688 202.214844 C 14.554688 202.097656 12.382812 200.253906 11.769531 197.773438 L 76.160156 201.34375 C 75.6875 202.433594 75.339844 203.585938 75.132812 204.789062 Z M 19.410156 228.800781 L 76.074219 213.253906 C 76.714844 214.78125 77.59375 216.183594 78.664062 217.414062 L 15.140625 235.0625 C 14.839844 232.195312 16.632812 229.5625 19.410156 228.800781 Z M 101.566406 230.761719 L 101.515625 230.773438 L 19.761719 244.910156 C 16.652344 245.175781 15.964844 242.886719 15.863281 241.953125 L 15.6875 240.273438 L 83.75 221.234375 C 85.683594 222.128906 87.835938 222.632812 90.105469 222.632812 C 98.488281 222.632812 105.304688 215.796875 105.304688 207.398438 C 105.304688 198.996094 98.488281 192.160156 90.105469 192.160156 C 85.996094 192.160156 82.261719 193.804688 79.523438 196.472656 L 13.285156 192.800781 C 16.601562 191.390625 18.917969 188.261719 18.917969 184.632812 C 18.917969 180.226562 15.5 176.550781 11.011719 175.808594 C 12.03125 173.523438 14.179688 171.824219 16.816406 171.492188 L 30.128906 169.816406 L 31.722656 186.449219 C 31.847656 187.757812 32.941406 188.734375 34.226562 188.734375 C 34.304688 188.734375 37.015625 188.355469 36.738281 185.96875 L 35.128906 169.1875 L 36.484375 169.015625 C 38.875 169.769531 45.960938 171.382812 54.859375 172.695312 C 54.796875 173.332031 54.753906 173.976562 54.753906 174.621094 C 54.753906 185.085938 63.25 193.597656 73.691406 193.597656 C 84.128906 193.597656 92.625 185.085938 92.625 174.621094 C 92.625 174.324219 92.617188 174.03125 92.601562 173.738281 C 93.742188 173.550781 94.839844 173.332031 95.886719 173.089844 C 96.6875 185.210938 106.773438 194.828125 119.0625 194.828125 C 122.890625 194.828125 126.503906 193.886719 129.691406 192.234375 C 131.5 201.566406 130.308594 209.511719 126.132812 215.886719 C 118.152344 228.070312 101.726562 230.738281 101.566406 230.761719 Z M 79.945312 207.398438 C 79.945312 201.777344 84.503906 197.210938 90.105469 197.210938 C 95.710938 197.210938 100.269531 201.777344 100.269531 207.398438 C 100.269531 213.015625 95.710938 217.582031 90.105469 217.582031 C 84.503906 217.582031 79.945312 213.015625 79.945312 207.398438 Z M 162.054688 213.234375 C 165.839844 217.671875 167.601562 221.464844 166.769531 223.386719 C 165.921875 225.34375 161.054688 227.417969 150.117188 226.828125 C 141.367188 226.355469 132.917969 225.375 127.554688 222.316406 C 128.535156 221.199219 129.464844 219.996094 130.320312 218.695312 C 133.058594 214.527344 134.722656 209.84375 135.3125 204.683594 C 135.8125 204.722656 141.089844 205.714844 149.578125 201.808594 C 154.425781 205.445312 158.898438 209.53125 162.054688 213.234375 Z M 159.730469 191.839844 C 144.347656 200.203125 136.621094 199.738281 135.550781 199.644531 C 135.496094 196.328125 135.042969 192.839844 134.195312 189.1875 C 137.566406 186.277344 140.097656 182.417969 141.371094 178.023438 C 143.988281 176.511719 147.289062 174.058594 150.609375 171.207031 C 156.285156 172.046875 161.457031 173.332031 165.277344 174.867188 C 169.460938 176.550781 171.992188 178.523438 172.230469 180.285156 C 172.511719 182.398438 169.359375 186.605469 159.730469 191.839844 Z M 159.730469 191.839844" stroke-linecap="round" />
</g>
<g transform="matrix(1.33 0 0 1.33 85.98 153.87)" id="oStMSqA-891_RZR59W4ml" clip-path="url(#CLIPPATH_7)"  >
<clipPath id="CLIPPATH_7" >
	<path transform="matrix(1 0 0 1 -9.61 -8.5) translate(-54.58, -106.9)" id="clip6" d="M -23.238281 101.050781 L 90.136719 37.4375 L 132.398438 112.757812 L 19.023438 176.371094 Z M -23.238281 101.050781" stroke-linecap="round" />
</clipPath>
<path style="stroke: none; stroke-width: 1; stroke-dasharray: none; stroke-linecap: butt; stroke-dashoffset: 0; stroke-linejoin: miter; stroke-miterlimit: 4; fill: rgb(0,127,53); fill-rule: nonzero; opacity: 1;" vector-effect="non-scaling-stroke"  transform=" translate(-64.19, -115.4)" d="M 107.398438 120.667969 L 107.363281 120.726562 C 107.347656 120.75 105.816406 123.230469 101.195312 125.820312 L 46.453125 156.539062 C 41.832031 159.132812 38.921875 159.144531 38.914062 159.144531 L 38.824219 159.140625 C 32.730469 159.246094 27.097656 157.832031 22.058594 154.949219 C 22.453125 153.191406 22.226562 151.285156 21.277344 149.589844 C 20.625 148.425781 19.703125 147.5 18.636719 146.847656 L 23.441406 144.152344 C 23.445312 145.398438 23.753906 146.667969 24.410156 147.832031 C 26.449219 151.46875 31.054688 152.769531 34.679688 150.734375 C 38.304688 148.703125 39.59375 144.089844 37.554688 140.457031 C 36.898438 139.292969 35.980469 138.367188 34.914062 137.714844 L 41.019531 134.289062 C 41.019531 135.539062 41.332031 136.804688 41.984375 137.972656 C 44.023438 141.605469 48.628906 142.90625 52.253906 140.875 C 55.878906 138.839844 57.167969 134.230469 55.128906 130.597656 C 54.476562 129.429688 53.554688 128.503906 52.488281 127.851562 L 57.292969 125.15625 C 57.296875 126.40625 57.605469 127.671875 58.261719 128.839844 C 60.300781 132.472656 64.90625 133.777344 68.53125 131.742188 C 72.15625 129.707031 73.441406 125.097656 71.402344 121.464844 C 70.75 120.296875 69.832031 119.375 68.765625 118.71875 L 73.570312 116.023438 C 73.570312 117.273438 73.878906 118.539062 74.535156 119.707031 C 76.574219 123.339844 81.183594 124.644531 84.804688 122.609375 C 88.429688 120.578125 89.71875 115.964844 87.679688 112.332031 C 87.027344 111.164062 86.105469 110.242188 85.039062 109.585938 L 91.144531 106.164062 C 91.148438 107.410156 91.457031 108.679688 92.113281 109.84375 C 94.152344 113.480469 98.757812 114.78125 102.382812 112.75 C 106.007812 110.714844 107.292969 106.105469 105.253906 102.46875 C 104.601562 101.304688 103.683594 100.378906 102.617188 99.726562 L 107.421875 97.03125 C 107.421875 98.277344 107.730469 99.546875 108.386719 100.714844 C 109.335938 102.40625 110.847656 103.59375 112.554688 104.171875 C 112.390625 109.976562 110.660156 115.519531 107.398438 120.667969 Z M 11.5 155.074219 C 10.507812 153.304688 11.136719 151.054688 12.902344 150.0625 C 14.667969 149.074219 16.914062 149.707031 17.910156 151.480469 C 18.902344 153.25 18.273438 155.5 16.507812 156.488281 C 14.742188 157.480469 12.496094 156.847656 11.5 155.074219 Z M 34.183594 142.347656 C 35.179688 144.121094 34.550781 146.367188 32.785156 147.359375 C 31.015625 148.347656 28.769531 147.714844 27.777344 145.941406 C 26.78125 144.171875 27.410156 141.921875 29.179688 140.933594 C 30.945312 139.941406 33.191406 140.574219 34.183594 142.347656 Z M 51.761719 132.484375 C 52.753906 134.257812 52.125 136.503906 50.359375 137.496094 C 48.59375 138.488281 46.347656 137.851562 45.351562 136.082031 C 44.359375 134.308594 44.988281 132.0625 46.753906 131.070312 C 48.519531 130.078125 50.765625 130.714844 51.761719 132.484375 Z M 68.035156 123.355469 C 69.03125 125.125 68.402344 127.371094 66.632812 128.363281 C 64.867188 129.355469 62.621094 128.722656 61.628906 126.949219 C 60.632812 125.175781 61.261719 122.929688 63.027344 121.9375 C 64.796875 120.945312 67.042969 121.582031 68.035156 123.355469 Z M 84.3125 114.222656 C 85.304688 115.992188 84.675781 118.242188 82.910156 119.230469 C 81.144531 120.222656 78.898438 119.589844 77.902344 117.816406 C 76.910156 116.042969 77.539062 113.796875 79.304688 112.804688 C 81.070312 111.816406 83.316406 112.449219 84.3125 114.222656 Z M 101.886719 104.359375 C 102.882812 106.132812 102.253906 108.378906 100.484375 109.371094 C 98.71875 110.363281 96.472656 109.726562 95.480469 107.957031 C 94.484375 106.183594 95.113281 103.9375 96.878906 102.945312 C 98.648438 101.953125 100.894531 102.585938 101.886719 104.359375 Z M 10.171875 141.667969 C 10.316406 141.082031 10.757812 140.589844 11.519531 140.164062 L 105.425781 87.472656 C 106.179688 87.046875 106.828125 86.929688 107.398438 87.101562 C 108.332031 87.386719 109.695312 89.664062 110.242188 91.03125 C 110.152344 91.066406 12.035156 146.109375 12.035156 146.109375 C 11.160156 144.941406 9.894531 142.78125 10.171875 141.667969 Z M 36.078125 111.003906 L 57.75 98.84375 C 58.679688 98.324219 59.007812 97.144531 58.484375 96.210938 C 57.960938 95.277344 56.78125 94.945312 55.851562 95.46875 L 34.878906 107.234375 C 33.757812 103.503906 32.777344 99.679688 32.058594 95.980469 L 57.277344 81.832031 C 60.023438 84.371094 62.746094 87.214844 65.324219 90.152344 L 60.792969 92.695312 C 59.863281 93.21875 59.53125 94.394531 60.058594 95.328125 C 60.578125 96.261719 61.757812 96.59375 62.6875 96.074219 L 67.882812 93.160156 C 70.007812 95.730469 71.992188 98.320312 73.765625 100.796875 L 39.4375 120.058594 C 38.289062 117.28125 37.140625 114.210938 36.078125 111.003906 Z M 35.355469 72.617188 C 40.167969 69.917969 47.121094 73.257812 54.1875 79.121094 L 31.371094 91.925781 C 30.085938 82.867188 30.769531 75.191406 35.355469 72.617188 Z M 121.15625 92.738281 C 119.460938 90.277344 116.589844 89.121094 113.808594 89.550781 C 113.242188 88.136719 112.773438 87.25 112.65625 87.035156 C 112.421875 86.574219 111.117188 84.214844 108.5625 83.414062 C 107.445312 83.0625 105.667969 82.894531 103.53125 84.09375 L 77.152344 98.894531 C 74.140625 94.667969 66.542969 84.585938 57.570312 76.902344 C 47.648438 68.40625 39.535156 65.828125 33.460938 69.238281 C 27.640625 72.503906 25.695312 80.660156 27.675781 93.484375 C 29.53125 105.492188 34.140625 117.390625 36.042969 121.960938 L 9.625 136.785156 C 7.488281 137.984375 6.703125 139.589844 6.421875 140.726562 C 5.773438 143.324219 7.105469 145.667969 7.378906 146.109375 C 7.5 146.316406 8.011719 147.179688 8.929688 148.40625 C 6.972656 150.742188 6.550781 154.148438 8.132812 156.964844 C 10.171875 160.597656 14.777344 161.902344 18.402344 159.867188 C 19.121094 159.464844 19.75 158.957031 20.273438 158.378906 C 25.882812 161.5625 32.125 163.121094 38.867188 163.015625 C 39.46875 163.019531 42.996094 162.917969 48.351562 159.914062 L 103.09375 129.199219 C 108.445312 126.195312 110.371094 123.234375 110.679688 122.71875 C 114.28125 117.023438 116.203125 110.882812 116.410156 104.4375 C 117.179688 104.289062 117.9375 104.019531 118.65625 103.617188 C 120.1875 102.757812 121.375 101.382812 122 99.746094 C 122.382812 98.75 121.882812 97.628906 120.886719 97.246094 C 119.890625 96.859375 118.773438 97.355469 118.390625 98.355469 C 118.082031 99.164062 117.519531 99.8125 116.761719 100.238281 C 114.996094 101.230469 112.75 100.59375 111.753906 98.824219 C 110.761719 97.050781 111.390625 94.804688 113.15625 93.8125 C 114.820312 92.878906 116.894531 93.359375 117.976562 94.933594 C 118.585938 95.8125 119.789062 96.035156 120.667969 95.429688 C 121.546875 94.824219 121.765625 93.617188 121.15625 92.738281" stroke-linecap="round" />
</g>
<g transform="matrix(1.33 0 0 1.33 120.9 166.97)" id="PZjNN18SH22S_ApmWnRLd" clip-path="url(#CLIPPATH_8)"  >
<clipPath id="CLIPPATH_8" >
	<path transform="matrix(1 0 0 1 -35.8 -18.33) translate(-54.58, -106.9)" id="clip9" d="M -23.332031 101.105469 L 90.230469 37.386719 L 132.484375 112.695312 L 18.925781 176.414062 Z M -23.332031 101.105469" stroke-linecap="round" />
</clipPath>
<path style="stroke: none; stroke-width: 1; stroke-dasharray: none; stroke-linecap: butt; stroke-dashoffset: 0; stroke-linejoin: miter; stroke-miterlimit: 4; fill: rgb(0,127,53); fill-rule: nonzero; opacity: 1;" vector-effect="non-scaling-stroke"  transform=" translate(-90.38, -125.23)" d="M 93.09375 125.925781 L 89.558594 127.910156 C 88.628906 128.433594 87.449219 128.101562 86.925781 127.167969 C 86.402344 126.234375 86.730469 125.054688 87.664062 124.535156 L 91.199219 122.550781 C 92.128906 122.027344 93.308594 122.359375 93.832031 123.292969 C 94.355469 124.226562 94.023438 125.40625 93.09375 125.925781" stroke-linecap="round" />
</g>
<g transform="matrix(1.33 0 0 1.33 104.24 176.32)" id="J7QfiW84b-Kb3aDDW2F-p" clip-path="url(#CLIPPATH_9)"  >
<clipPath id="CLIPPATH_9" >
	<path transform="matrix(1 0 0 1 -23.31 -25.34) translate(-54.58, -106.9)" id="clip12" d="M -23.332031 101.105469 L 90.230469 37.386719 L 132.484375 112.695312 L 18.925781 176.414062 Z M -23.332031 101.105469" stroke-linecap="round" />
</clipPath>
<path style="stroke: none; stroke-width: 1; stroke-dasharray: none; stroke-linecap: butt; stroke-dashoffset: 0; stroke-linejoin: miter; stroke-miterlimit: 4; fill: rgb(0,127,53); fill-rule: nonzero; opacity: 1;" vector-effect="non-scaling-stroke"  transform=" translate(-77.89, -132.24)" d="M 84.617188 130.683594 L 73.054688 137.171875 C 72.125 137.695312 70.945312 137.359375 70.421875 136.429688 C 69.898438 135.496094 70.226562 134.316406 71.15625 133.792969 L 82.722656 127.304688 C 83.652344 126.785156 84.828125 127.117188 85.351562 128.050781 C 85.878906 128.984375 85.546875 130.160156 84.617188 130.683594" stroke-linecap="round" />
</g>
<g transform="matrix(1.33 0 0 1.33 312.88 249.45)" id="qVizm2UQAevjTvjyEi0R_"  >
<path style="stroke: none; stroke-width: 1; stroke-dasharray: none; stroke-linecap: butt; stroke-dashoffset: 0; stroke-linejoin: miter; stroke-miterlimit: 4; fill: rgb(5,127,81); fill-rule: nonzero; opacity: 1;" vector-effect="non-scaling-stroke"  transform=" translate(-55.8, 41.18)" d="M 44.78125 0 L 27.9375 -59.328125 L 27.4375 -59.328125 C 28.226562 -49.222656 28.625 -41.367188 28.625 -35.765625 L 28.625 0 L 8.90625 0 L 8.90625 -82.359375 L 38.53125 -82.359375 L 55.71875 -23.890625 L 56.171875 -23.890625 L 73.015625 -82.359375 L 102.703125 -82.359375 L 102.703125 0 L 82.25 0 L 82.25 -36.109375 C 82.25 -37.984375 82.273438 -40.066406 82.328125 -42.359375 C 82.390625 -44.648438 82.644531 -50.265625 83.09375 -59.203125 L 82.59375 -59.203125 L 65.96875 0 Z M 44.78125 0" stroke-linecap="round" />
</g>
<g transform="matrix(1.33 0 0 1.33 439.13 249.45)" id="VVWDMKjRKuQsAwiIQ09Ed"  >
<path style="stroke: none; stroke-width: 1; stroke-dasharray: none; stroke-linecap: butt; stroke-dashoffset: 0; stroke-linejoin: miter; stroke-miterlimit: 4; fill: rgb(5,127,81); fill-rule: nonzero; opacity: 1;" vector-effect="non-scaling-stroke"  transform=" translate(-40.02, 41.18)" d="M 55.15625 -82.359375 L 80.046875 -82.359375 L 53.0625 0 L 26.875 0 L 0 -82.359375 L 25.015625 -82.359375 L 36.21875 -40.625 C 38.550781 -31.34375 39.828125 -24.878906 40.046875 -21.234375 C 40.316406 -23.867188 40.84375 -27.15625 41.625 -31.09375 C 42.414062 -35.039062 43.113281 -38.140625 43.71875 -40.390625 Z M 55.15625 -82.359375" stroke-linecap="round" />
</g>
</svg>