<?xml version="1.0" encoding="UTF-8" standalone="no" ?>
<!DOCTYPE svg PUBLIC "-//W3C//DTD SVG 1.1//EN" "http://www.w3.org/Graphics/SVG/1.1/DTD/svg11.dtd">
<svg xmlns="http://www.w3.org/2000/svg" xmlns:xlink="http://www.w3.org/1999/xlink" version="1.1" width="28" height="36" viewBox="236 232 28 36" xml:space="preserve">
<desc>Created with Fabric.js 4.6.0</desc>
<defs>
</defs>
<g transform="matrix(1 0 0 1 250 250)" id="0LgtWbLuvCFQXTpjQojCp"  >
<path style="stroke: none; stroke-width: 1; stroke-dasharray: none; stroke-linecap: butt; stroke-dashoffset: 0; stroke-linejoin: miter; stroke-miterlimit: 4; fill: rgb(255,255,255); fill-rule: nonzero; opacity: 1;" vector-effect="non-scaling-stroke"  transform=" translate(-12, -12)" d="M 12 0 C 7.802 0 4 3.403 4 7.602 C 4 11.8 7.468999999999999 16.812 12 24 C 16.531 16.812 20 11.8 20 7.602 C 20 3.4030000000000005 16.198999999999998 0 12 0 z M 12 11 C 10.343 11 9 9.657 9 8 C 9 6.343 10.343 5 12 5 C 13.657 5 15 6.343 15 8 C 15 9.657 13.657 11 12 11 z" stroke-linecap="round" />
</g>
</svg>