<?xml version="1.0" encoding="UTF-8" standalone="no" ?>
<!DOCTYPE svg PUBLIC "-//W3C//DTD SVG 1.1//EN" "http://www.w3.org/Graphics/SVG/1.1/DTD/svg11.dtd">
<svg xmlns="http://www.w3.org/2000/svg" xmlns:xlink="http://www.w3.org/1999/xlink" version="1.1" width="30" height="30" viewBox="235 235 30 30" xml:space="preserve">
<desc>Created with Fabric.js 4.6.0</desc>
<defs>
</defs>
<g transform="matrix(1 0 0 1 250 250)" id="G75lFlt7oADlCyRKxhqmP"  >
<path style="stroke: rgb(167,166,166); stroke-width: 2; stroke-dasharray: none; stroke-linecap: round; stroke-dashoffset: 0; stroke-linejoin: round; stroke-miterlimit: 4; fill: none; fill-rule: nonzero; opacity: 1;" vector-effect="non-scaling-stroke"  transform=" translate(-12, -12)" d="M 3 5 C 3 3.895430500338413 3.895430500338413 3 5 3 L 8.28 3 C 8.710239297869968 3.000326674635318 9.092044466702568 3.27580635341327 9.228 3.6839999999999993 L 10.725999999999999 8.177 C 10.882914604076745 8.64905154749958 10.668997894013064 9.164667521955863 10.223999999999998 9.387 L 7.966999999999999 10.517 C 9.07331871716207 12.96553781427719 11.03446218572281 14.926681282837928 13.482999999999999 16.033 L 14.613 13.776000000000002 C 14.835332478044137 13.331002105986936 15.35094845250042 13.117085395923255 15.823 13.274000000000001 L 20.316000000000003 14.772 C 20.724542754361632 14.908071933346271 21.000103690553836 15.290392588969665 21.000000000000004 15.721 L 21.000000000000004 19 C 21.000000000000004 20.104569499661586 20.10456949966159 21 19.000000000000004 21 L 18.000000000000004 21 C 9.716 21 3 14.284 3 6 L 3 5 z" stroke-linecap="round" />
</g>
</svg>